HIERARCHY
ROOT Bip001_Pelvis
{
  OFFSET 34.4345 95.6767 -26.8758
  CHANNELS 6 Xposition Yposition Zposition Zrotation Xrotation Yrotation
  JOINT Bip001_Spine
  {
    OFFSET 1.4188e-005 10.2191 -0.0116013
    CHANNELS 3 Zrotation Xrotation Yrotation
    JOINT Bip001_L_Thigh
    {
      OFFSET 11.0458 -10.2192 0.0116197
      CHANNELS 3 Zrotation Xrotation Yrotation
      JOINT Bip001_L_Calf
      {
        OFFSET -0.707118 -44.0221 0.360014
        CHANNELS 3 Zrotation Xrotation Yrotation
        JOINT Bip001_L_Foot
        {
          OFFSET -0.651902 -40.5938 -3.56146
          CHANNELS 3 Zrotation Xrotation Yrotation
          JOINT Bip001_L_Toe0
          {
            OFFSET 0.0530839 -10.2181 13.1504
            CHANNELS 3 Zrotation Xrotation Yrotation
            End Site
            {
              OFFSET -1.02532e-005 0 7.55606
            }
          }
        }
      }
    }
    JOINT Bip001_R_Thigh
    {
      OFFSET -11.0458 -10.2191 0.0115893
      CHANNELS 3 Zrotation Xrotation Yrotation
      JOINT Bip001_R_Calf
      {
        OFFSET 0.706994 -44.0221 0.35984
        CHANNELS 3 Zrotation Xrotation Yrotation
        JOINT Bip001_R_Foot
        {
          OFFSET 0.651786 -40.5938 -3.5613
          CHANNELS 3 Zrotation Xrotation Yrotation
          JOINT Bip001_R_Toe0
          {
            OFFSET -0.0531479 -10.2181 13.1504
            CHANNELS 3 Zrotation Xrotation Yrotation
            End Site
            {
              OFFSET -1.02894e-005 0 7.55606
            }
          }
        }
      }
    }
    JOINT Bip001_Spine1
    {
      OFFSET 1.87041e-005 14.5736 1.08638
      CHANNELS 3 Zrotation Xrotation Yrotation
      JOINT Bip001_Spine2
      {
        OFFSET 2.24614e-005 14.5058 -1.69078
        CHANNELS 3 Zrotation Xrotation Yrotation
        JOINT Bip001_Neck
        {
          OFFSET 2.20278e-005 15.3945 -0.489414
          CHANNELS 3 Zrotation Xrotation Yrotation
          JOINT Bip001_L_Clavicle
          {
            OFFSET 6.06036 -0.000579998 0.00836775
            CHANNELS 3 Zrotation Xrotation Yrotation
            JOINT Bip001_L_UpperArm
            {
              OFFSET 11.5509 -0.0600302 0.00193952
              CHANNELS 3 Zrotation Xrotation Yrotation
              JOINT Bip001_L_Forearm
              {
                OFFSET 25.9523 0.0806089 -2.15551
                CHANNELS 3 Zrotation Xrotation Yrotation
                JOINT Bip001_L_Hand
                {
                  OFFSET 32.2475 0.153767 1.63968
                  CHANNELS 3 Zrotation Xrotation Yrotation
                  JOINT Bip001_L_Finger0
                  {
                    OFFSET 6.04639 -2.20976 5.90322
                    CHANNELS 3 Zrotation Xrotation Yrotation
                    End Site
                    {
                      OFFSET 4.22375 -1.43895 0.606485
                    }
                  }
                  JOINT Bip001_L_Finger1
                  {
                    OFFSET 11.0826 -0.704819 -0.198153
                    CHANNELS 3 Zrotation Xrotation Yrotation
                    End Site
                    {
                      OFFSET 6.20027 -0.397518 -0.0787166
                    }
                  }
                }
              }
            }
          }
          JOINT Bip001_R_Clavicle
          {
            OFFSET -6.06037 -0.000563197 0.00835105
            CHANNELS 3 Zrotation Xrotation Yrotation
            JOINT Bip001_R_UpperArm
            {
              OFFSET -11.5509 -0.0599978 0.00190698
              CHANNELS 3 Zrotation Xrotation Yrotation
              JOINT Bip001_R_Forearm
              {
                OFFSET -25.9523 0.0806822 -2.15589
                CHANNELS 3 Zrotation Xrotation Yrotation
                JOINT Bip001_R_Hand
                {
                  OFFSET -32.2475 0.153859 1.63989
                  CHANNELS 3 Zrotation Xrotation Yrotation
                  JOINT Bip001_R_Finger0
                  {
                    OFFSET -6.04641 -2.20976 5.90317
                    CHANNELS 3 Zrotation Xrotation Yrotation
                    End Site
                    {
                      OFFSET -4.22376 -1.43895 0.60647
                    }
                  }
                  JOINT Bip001_R_Finger1
                  {
                    OFFSET -11.0826 -0.704794 -0.198182
                    CHANNELS 3 Zrotation Xrotation Yrotation
                    End Site
                    {
                      OFFSET -6.20028 -0.397504 -0.0787333
                    }
                  }
                }
              }
            }
          }
          JOINT Bip001_Head
          {
            OFFSET 1.09673e-005 11.2744 2.05948
            CHANNELS 3 Zrotation Xrotation Yrotation
            End Site
            {
              OFFSET 2.89576e-005 20.8808 -2.77728e-005
            }
          }
        }
      }
    }
  }
}
MOTION
Frames:	5
Frame Time:	0.04
35.1585 95.2884 -31.6384 -1.115 0.238132 8.31632 0.636946 2.32868 -0.38849 6.0084 -10.3749 5.84339 -1.38297 17.4636 -3.17146 2.79842 -7.78504 0.0777685 0.97326 -3.31652 -0.557329 -5.09305 -4.23294 -1.11742 0.754008 11.3484 -0.466263 -8.10377 -6.58553 -5.91716 3.42891 -11.4904 4.09464 1.29129 4.65284 -0.80388 1.29129 4.65284 -0.803883 3.87499 -8.76651 -7.71278 -27.4884 6.9518 5.28491 -59.177 39.9739 7.93964 21.473 3.53057 -29.9984 12.8035 0.288862 -6.82454 -6.36111e-015 0 3.18055e-015 -3.18055e-015 0 -0 14.5008 16.6029 24.5383 62.1488 -68.4157 30.5425 -48.2791 3.01359 92.5104 -32.5982 -22.7672 12.1923 3.18055e-015 0 -7.95139e-016 -2.20695e-032 -1.59028e-015 -7.95139e-016 -5.37832 5.75647 -5.03037 
35.0358 95.3314 -31.7075 -0.790499 0.886107 11.8814 0.423523 2.22478 -0.00841476 5.55448 -11.4165 4.93863 -1.0881 16.8441 -5.89434 2.35347 -7.30495 0.0552059 0.944911 -3.04728 -0.65758 -5.16983 -3.98795 -1.08437 1.26747 11.195 -0.9404 -8.86646 -6.11089 -9.00694 3.46266 -11.5053 4.00829 0.848336 4.44937 -0.0333247 0.848335 4.4494 -0.0333302 4.61582 -10.1821 -10.1461 -28.8427 7.13382 7.24779 -57.1178 40.0416 6.85853 20.9463 2.91812 -31.4568 12.9417 0.0299142 -7.45656 -3.18055e-015 0 -0 -3.18055e-015 3.18056e-015 -3.18055e-015 12.0184 18.5163 28.3061 60.351 -61.6285 34.5956 -48.3503 5.31421 88.5279 -26.0495 -26.1725 12.6697 -3.18055e-015 -3.18055e-015 6.36111e-015 3.53113e-031 -3.18056e-015 6.36111e-015 -5.81163 6.68751 -7.03325 
35.1795 95.3879 -31.6417 -0.372849 1.44947 15.2189 0.146881 2.17684 0.405856 4.72167 -11.9993 4.52851 -0.504485 15.8542 -9.01897 2.18891 -6.61613 0.0350917 1.04675 -2.98024 -0.895047 -5.59448 -3.47552 -2.229 1.79356 10.906 -1.48194 -9.30425 -5.87644 -10.8055 3.4932 -11.4866 3.86266 0.278596 4.35469 0.806993 0.278595 4.35448 0.807009 6.14627 -10.6622 -12.1314 -29.7797 6.67107 8.05543 -56.918 39.6825 6.7923 20.6075 1.10412 -32.4887 13.0587 -0.0326947 -7.76602 3.18055e-015 0 -3.18055e-015 3.18055e-015 0 -3.18055e-015 7.79832 18.6376 32.0729 57.4548 -52.0788 40.3671 -50.2407 9.14831 77.5004 -20.5075 -26.1321 15.0952 7.06225e-031 -6.36111e-015 6.36111e-015 -3.18055e-015 -3.18056e-015 -0 -6.66433 6.86119 -8.35725 
34.7814 95.4303 -31.5494 -0.810759 1.95784 18.724 0.0165276 2.16405 0.58474 5.2855 -13.3446 4.09017 -0.709755 15.9102 -11.7507 1.57929 -6.51522 0.0261571 0.950205 -2.55725 -0.930814 -4.65444 -3.04399 -2.29083 1.91773 10.0703 -1.89149 -9.85982 -5.0134 -13.5191 3.4876 -11.3425 3.67249 0.018219 4.32796 1.17806 0.0150156 4.32797 1.1738 7.67857 -10.1181 -13.5815 -30.4494 5.49988 7.90024 -55.7963 37.9132 7.26986 19.3745 -0.256488 -34.6366 12.3606 0.0200012 -7.09567 -1.11319e-014 -6.36111e-015 -0 -1.27222e-014 -3.18056e-015 3.18055e-015 5.21099 17.4456 33.6026 66.9611 -52.3847 51.316 -54.0351 11.2691 73.6141 -25.9713 -24.8116 12.9027 0 0 -1.11319e-014 3.18055e-015 3.18056e-015 -1.11319e-014 -7.00512 4.9596 -9.46219 
34.6054 95.5503 -31.4926 -0.826287 2.59474 21.32 -0.249122 2.18371 0.326645 5.11635 -13.8722 2.72933 -0.696344 14.6287 -12.4178 0.907771 -5.7837 0.0254552 0.898727 -2.19077 -1.11969 -4.35677 -3.06303 -2.47343 2.07013 9.70789 -2.2967 -10.0401 -4.48538 -14.96 3.47145 -11.2363 3.56122 -0.486982 4.36619 0.658355 -0.493477 4.36629 0.659624 11.2254 -9.14569 -14.3747 -31.557 3.63365 8.26284 -56.9574 35.7864 8.49042 18.8209 -0.487151 -35.4841 12.605 0.138044 -6.78618 -1.59028e-015 -6.36111e-015 9.54166e-015 7.06225e-031 -3.18056e-015 1.27222e-014 6.65373 16.9065 29.6803 60.4031 -52.1901 50.5387 -48.5054 9.38858 71.3479 -24.7987 -24.3159 13.6965 3.53112e-031 1.27222e-014 -1.59028e-015 2.64834e-031 9.54167e-015 -1.59028e-015 -8.87282 3.57965 -9.18534 
